<?xml version="1.0" encoding="UTF-8" standalone="no"?>
<svg
   xmlns:dc="http://purl.org/dc/elements/1.1/"
   xmlns:cc="http://creativecommons.org/ns#"
   xmlns:rdf="http://www.w3.org/1999/02/22-rdf-syntax-ns#"
   xmlns:svg="http://www.w3.org/2000/svg"
   xmlns="http://www.w3.org/2000/svg"
   xmlns:xlink="http://www.w3.org/1999/xlink"
   xmlns:sodipodi="http://sodipodi.sourceforge.net/DTD/sodipodi-0.dtd"
   xmlns:inkscape="http://www.inkscape.org/namespaces/inkscape"
   height="60"
   width="60"
   id="svg2"
   version="1.1"
   inkscape:version="0.48.4 r9939"
   sodipodi:docname="template.svg"
   inkscape:export-filename="G:\icons\qgis_hats\template.png"
   inkscape:export-xdpi="90"
   inkscape:export-ydpi="90">
  <metadata
     id="metadata61">
    <rdf:RDF>
      <cc:Work
         rdf:about="">
        <dc:format>image/svg+xml</dc:format>
        <dc:type
           rdf:resource="http://purl.org/dc/dcmitype/StillImage" />
        <dc:title></dc:title>
      </cc:Work>
    </rdf:RDF>
  </metadata>
  <defs
     id="defs59">
    <filter
       id="i-6"
       style="color-interpolation-filters:sRGB">
      <feGaussianBlur
         stdDeviation=".48785405"
         id="feGaussianBlur29-0" />
    </filter>
    <linearGradient
       id="h-5"
       gradientUnits="userSpaceOnUse"
       x1="569.49481"
       x2="579.73047"
       xlink:href="#c"
       y1="686.52283"
       y2="672.73425"
       gradientTransform="translate(0.26782765,2.3894478)" />
    <linearGradient
       id="linearGradient4325">
      <stop
         offset="0"
         stop-color="#0d4100"
         id="stop9-5" />
      <stop
         offset="1"
         stop-color="#129300"
         id="stop11-4" />
    </linearGradient>
    <linearGradient
       inkscape:collect="always"
       xlink:href="#d"
       id="linearGradient4189"
       gradientUnits="userSpaceOnUse"
       gradientTransform="matrix(-0.28268074,-0.95921406,-0.95921406,0.28268074,1145.0103,950.69171)"
       x1="413.40717"
       y1="477.57877"
       x2="423.64282"
       y2="463.79016" />
    <linearGradient
       id="linearGradient4330"
       gradientTransform="matrix(-0.28268074,-0.95921406,-0.95921406,0.28268074,1144.7424,948.30227)"
       gradientUnits="userSpaceOnUse"
       x1="413.40717"
       x2="423.64282"
       y1="477.57877"
       y2="463.79016">
      <stop
         offset="0"
         stop-color="#0d1d00"
         id="stop14-8" />
      <stop
         offset="1"
         stop-color="#0d7200"
         id="stop16-4" />
    </linearGradient>
    <filter
       id="g-8"
       style="color-interpolation-filters:sRGB">
      <feGaussianBlur
         stdDeviation="1.0155639"
         id="feGaussianBlur25-1" />
    </filter>
    <clipPath
       id="e-1">
      <path
         d="m 485.06341,446.7935 c -9.77401,0.51743 -17.5625,8.97625 -17.5625,19.3125 0,10.66968 8.28361,19.3125 18.5,19.3125 1.1046,0 2.16736,-0.11879 3.21875,-0.3125 l 0,3.09375 c 0.085,1.31607 1.67268,4.12266 6.65625,4.15625 5.76986,0.0389 8.44866,-3.49777 8.9375,-4.5625 0.90942,-2.43008 0.73396,-3.98858 0.6875,-4.96875 -0.019,0.58818 -1.99576,4.1014 -5.09375,4.21875 -4.98011,0.18864 -4.4375,-0.71244 -4.4375,-2.03125 l 0,-2.625 c 5.12836,-3.43242 8.53125,-9.44688 8.53125,-16.28125 0,-10.66968 -8.28361,-19.3125 -18.5,-19.3125 -0.31926,0 -0.62221,-0.0167 -0.9375,0 z m 0.625,1.375 c 3.87037,0 7,7.86055 7,17.59375 0,2.16342 -0.15449,4.24122 -0.4375,6.15625 -1.61816,-0.66461 -3.68163,-1.19682 -6.1875,-1.1875 -3.70225,0.0138 -5.98672,0.85933 -6.875,1.46875 -0.3101,-1.99278 -0.5,-4.16771 -0.5,-6.4375 0,-9.7332 3.12963,-17.59375 7,-17.59375 z m -1.28125,23.46875 c 3.73877,0.0637 4.8125,1.51573 4.8125,2.28125 l 0,7.0625 c -1.03594,1.52517 -2.24316,2.40625 -3.53125,2.40625 -2.82374,0 -5.23629,-4.19827 -6.34375,-10.25 0.89383,-0.63738 2.70035,-1.54023 5.0625,-1.5 z"
         id="path19-6"
         inkscape:connector-curvature="0" />
    </clipPath>
    <filter
       id="f-2"
       height="1.7867672"
       width="1.6636782"
       x="-0.33183911"
       y="-0.39338365"
       style="color-interpolation-filters:sRGB">
      <feGaussianBlur
         stdDeviation=".65194979"
         id="feGaussianBlur22-2" />
    </filter>
    <clipPath
       id="a-8">
      <path
         d="m 565.16125,646.18127 42.875,0 0,39.625 -42.875,0 z"
         transform="matrix(0.99990096,-0.01407388,0.01407388,0.99990096,0,0)"
         id="path5-6"
         inkscape:connector-curvature="0" />
    </clipPath>
    <linearGradient
       inkscape:collect="always"
       xlink:href="#c"
       id="linearGradient4355"
       gradientUnits="userSpaceOnUse"
       gradientTransform="translate(0.26782765,2.3894478)"
       x1="569.49481"
       y1="686.52283"
       x2="579.73047"
       y2="672.73425" />
    <linearGradient
       inkscape:collect="always"
       xlink:href="#d"
       id="linearGradient4357"
       gradientUnits="userSpaceOnUse"
       gradientTransform="matrix(-0.28268074,-0.95921406,-0.95921406,0.28268074,1145.0103,950.69171)"
       x1="413.40717"
       y1="477.57877"
       x2="423.64282"
       y2="463.79016" />
  </defs>
  <sodipodi:namedview
     pagecolor="#ffffff"
     bordercolor="#666666"
     borderopacity="1"
     objecttolerance="10"
     gridtolerance="10"
     guidetolerance="10"
     inkscape:pageopacity="0"
     inkscape:pageshadow="2"
     inkscape:window-width="1920"
     inkscape:window-height="1018"
     id="namedview57"
     showgrid="false"
     inkscape:snap-bbox="true"
     inkscape:snap-bbox-midpoints="false"
     inkscape:snap-page="true"
     inkscape:bbox-nodes="true"
     inkscape:zoom="3.7398687"
     inkscape:cx="27.478534"
     inkscape:cy="56.728122"
     inkscape:window-x="-8"
     inkscape:window-y="-8"
     inkscape:window-maximized="1"
     inkscape:current-layer="layer2" />
  <clipPath
     id="a">
    <path
       d="m 565.16125,646.18127 42.875,0 0,39.625 -42.875,0 z"
       transform="matrix(0.99990096,-0.01407388,0.01407388,0.99990096,0,0)"
       id="path5"
       inkscape:connector-curvature="0" />
  </clipPath>
  <linearGradient
     id="b"
     gradientUnits="userSpaceOnUse"
     x1="569.49481"
     x2="579.73047"
     xlink:href="#c"
     y1="686.52283"
     y2="672.73425"
     gradientTransform="translate(0.26782727,2.3894482)" />
  <linearGradient
     id="c">
    <stop
       offset="0"
       stop-color="#0d4100"
       id="stop9" />
    <stop
       offset="1"
       stop-color="#129300"
       id="stop11" />
  </linearGradient>
  <linearGradient
     id="d"
     gradientTransform="matrix(-0.28268074,-0.95921406,-0.95921406,0.28268074,1144.7424,948.30227)"
     gradientUnits="userSpaceOnUse"
     x1="413.40717"
     x2="423.64282"
     y1="477.57877"
     y2="463.79016">
    <stop
       offset="0"
       stop-color="#0d1d00"
       id="stop14" />
    <stop
       offset="1"
       stop-color="#0d7200"
       id="stop16" />
  </linearGradient>
  <clipPath
     id="e">
    <path
       d="m 485.06341,446.7935 c -9.77401,0.51743 -17.5625,8.97625 -17.5625,19.3125 0,10.66968 8.28361,19.3125 18.5,19.3125 1.1046,0 2.16736,-0.11879 3.21875,-0.3125 l 0,3.09375 c 0.085,1.31607 1.67268,4.12266 6.65625,4.15625 5.76986,0.0389 8.44866,-3.49777 8.9375,-4.5625 0.90942,-2.43008 0.73396,-3.98858 0.6875,-4.96875 -0.019,0.58818 -1.99576,4.1014 -5.09375,4.21875 -4.98011,0.18864 -4.4375,-0.71244 -4.4375,-2.03125 l 0,-2.625 c 5.12836,-3.43242 8.53125,-9.44688 8.53125,-16.28125 0,-10.66968 -8.28361,-19.3125 -18.5,-19.3125 -0.31926,0 -0.62221,-0.0167 -0.9375,0 z m 0.625,1.375 c 3.87037,0 7,7.86055 7,17.59375 0,2.16342 -0.15449,4.24122 -0.4375,6.15625 -1.61816,-0.66461 -3.68163,-1.19682 -6.1875,-1.1875 -3.70225,0.0138 -5.98672,0.85933 -6.875,1.46875 -0.3101,-1.99278 -0.5,-4.16771 -0.5,-6.4375 0,-9.7332 3.12963,-17.59375 7,-17.59375 z m -1.28125,23.46875 c 3.73877,0.0637 4.8125,1.51573 4.8125,2.28125 l 0,7.0625 c -1.03594,1.52517 -2.24316,2.40625 -3.53125,2.40625 -2.82374,0 -5.23629,-4.19827 -6.34375,-10.25 0.89383,-0.63738 2.70035,-1.54023 5.0625,-1.5 z"
       id="path19"
       inkscape:connector-curvature="0" />
  </clipPath>
  <filter
     id="f"
     height="1.7867672"
     width="1.6636782"
     x="-0.33183911"
     y="-0.39338365"
     style="color-interpolation-filters:sRGB">
    <feGaussianBlur
       stdDeviation=".65194979"
       id="feGaussianBlur22" />
  </filter>
  <filter
     id="g"
     style="color-interpolation-filters:sRGB">
    <feGaussianBlur
       stdDeviation="1.0155639"
       id="feGaussianBlur25" />
  </filter>
  <linearGradient
     id="h"
     gradientUnits="userSpaceOnUse"
     x1="569.49481"
     x2="579.73047"
     xlink:href="#c"
     y1="686.52283"
     y2="672.73425"
     gradientTransform="translate(0.26782727,2.3894482)" />
  <filter
     id="i"
     style="color-interpolation-filters:sRGB">
    <feGaussianBlur
       stdDeviation=".48785405"
       id="feGaussianBlur29" />
  </filter>
  <g
     transform="translate(-293.45819,-453.50413)"
     id="g31" />
  <g
     inkscape:groupmode="layer"
     id="layer2"
     inkscape:label="qgis"
     style="display:inline">
    <g
       transform="translate(-293.45819,-453.50413)"
       id="g4212">
      <path
         style="opacity:0.30041151;stroke:#060000;stroke-width:0.60000002;filter:url(#i-6)"
         inkscape:connector-curvature="0"
         id="path33"
         transform="matrix(0.99958439,-0.02882794,0.02882794,0.99958439,-112.94886,26.451722)"
         d="m 445.49832,443.64178 -13.43694,5.46836 3.53559,2.34117 c 0,0 -21.73596,25.20136 -26.72117,31.08815 l -9.37732,3.36622 7.94737,1.95465 2.1582,7.35242 2.83885,-9.42158 26.7609,-31.21072 2.97047,3.27344 z" />
      <g
         id="g35"
         transform="matrix(0.99990096,0.01407388,-0.01407388,0.99990096,-245.10157,-201.70028)">
        <path
           style="fill:url(#linearGradient4355)"
           inkscape:connector-curvature="0"
           id="path37"
           d="m 597.71136,649.10637 -12.9375,6.3125 3.6875,2.09375 c 0,0 -19.96054,26.62963 -24.53125,32.84375 l -9.125,4 8.03125,1.40625 z" />
        <path
           style="fill:url(#linearGradient4357)"
           inkscape:connector-curvature="0"
           id="path39"
           d="m 597.69396,649.11595 -2.39786,14.19425 -3.05074,-2.94525 c 0,0 -19.90106,26.67412 -24.56967,32.81503 l -1.25739,9.88354 -3.61917,-7.30616 z" />
      </g>
      <path
         style="filter:url(#g-8)"
         inkscape:connector-curvature="0"
         id="path41"
         d="m 322.14652,464.00363 c -9.77401,0.51743 -17.5625,8.97625 -17.5625,19.3125 0,10.66968 8.28361,19.3125 18.5,19.3125 1.1046,0 2.16736,-0.11879 3.21875,-0.3125 l 0,3.09375 c 0.085,1.31607 1.67268,4.12266 6.65625,4.15625 5.76986,0.0389 8.44866,-3.49777 8.9375,-4.5625 0.90942,-2.43008 0.73396,-3.98858 0.6875,-4.96875 -0.019,0.58818 -1.99576,4.1014 -5.09375,4.21875 -4.98011,0.18864 -4.4375,-0.71244 -4.4375,-2.03125 l 0,-2.625 c 5.12836,-3.43242 8.53125,-9.44688 8.53125,-16.28125 0,-10.66968 -8.28361,-19.3125 -18.5,-19.3125 -0.31926,0 -0.62221,-0.0167 -0.9375,0 z m 0.625,1.375 c 3.87037,0 7,7.86055 7,17.59375 0,2.16342 -0.15449,4.24122 -0.4375,6.15625 -1.61816,-0.66461 -3.68163,-1.19682 -6.1875,-1.1875 -3.70225,0.0138 -5.98672,0.85933 -6.875,1.46875 -0.3101,-1.99278 -0.5,-4.16771 -0.5,-6.4375 0,-9.7332 3.12963,-17.59375 7,-17.59375 z m -1.28125,23.46875 c 3.73877,0.0637 4.8125,1.51573 4.8125,2.28125 l 0,7.0625 c -1.03594,1.52517 -2.24316,2.40625 -3.53125,2.40625 -2.82374,0 -5.23629,-4.19827 -6.34375,-10.25 0.89383,-0.63738 2.70035,-1.54023 5.0625,-1.5 z" />
      <path
         style="fill:#e4f363"
         inkscape:connector-curvature="0"
         id="path43"
         d="m 321.61618,463.47329 c -9.77401,0.51743 -17.5625,8.97625 -17.5625,19.3125 0,10.66968 8.28361,19.3125 18.5,19.3125 1.1046,0 2.16736,-0.11879 3.21875,-0.3125 l 0,3.09375 c 0.085,1.31607 1.67268,4.12266 6.65625,4.15625 5.76986,0.0389 8.44866,-3.49777 8.9375,-4.5625 0.90942,-2.43008 0.73396,-3.98858 0.6875,-4.96875 -0.019,0.58818 -1.99576,4.1014 -5.09375,4.21875 -4.98011,0.18864 -4.4375,-0.71244 -4.4375,-2.03125 l 0,-2.625 c 5.12836,-3.43242 8.53125,-9.44688 8.53125,-16.28125 0,-10.66968 -8.28361,-19.3125 -18.5,-19.3125 -0.31926,0 -0.62221,-0.0167 -0.9375,0 z m 0.625,1.375 c 3.87037,0 7,7.86055 7,17.59375 0,2.16342 -0.15449,4.24122 -0.4375,6.15625 -1.61816,-0.66461 -3.68163,-1.19682 -6.1875,-1.1875 -3.70225,0.0138 -5.98672,0.85933 -6.875,1.46875 -0.3101,-1.99278 -0.5,-4.16771 -0.5,-6.4375 0,-9.7332 3.12963,-17.59375 7,-17.59375 z m -1.28125,23.46875 c 3.73877,0.0637 4.8125,1.51573 4.8125,2.28125 l 0,7.0625 c -1.03594,1.52517 -2.24316,2.40625 -3.53125,2.40625 -2.82374,0 -5.23629,-4.19827 -6.34375,-10.25 0.89383,-0.63738 2.70035,-1.54023 5.0625,-1.5 z" />
      <path
         style="opacity:0.38271604;fill:#ffffff;filter:url(#f-2)"
         inkscape:connector-curvature="0"
         id="path45"
         transform="translate(-163.44724,16.679802)"
         d="m 488.43401,448.93493 c 0,0 3.0052,0.53033 4.15425,1.23744 1.14905,0.70711 0.17678,2.65165 0.17678,2.65165 l -2.12132,0.0884 z M 479.5,472.11218 c 0,0 2.375,-1.25 4,-1.4375 1.625,-0.1875 4.4375,-0.25 5.5625,0.0625 1.125,0.3125 3.3125,0.9375 3.5,1.25 0.1875,0.3125 1,3.25 1,3.25 l -2.5625,0.25 -1.8125,-2.0625 c 0,0 -2.6875,-1.625 -3.0625,-1.625 -0.375,0 -2.5625,-0.25 -3.375,-0.125 -0.8125,0.125 -3.5625,0.3125 -3.5625,0.3125 z m -10.50551,-11.04186 c -0.0152,-0.28825 0.41404,-1.95744 0.76266,-2.40979 0.34862,-0.45234 -1.01549,1.31997 1.48894,-2.21065 0.3964,-0.55884 2.30192,-2.23113 1.87609,-1.6724 -0.57503,0.75451 -1.69674,3.24294 -1.84878,3.44985 -0.15205,0.2069 -0.43962,1.94011 -0.58236,2.71994 -0.29797,1.62698 0.78628,3.18584 0.71846,3.88506 -0.0679,0.69921 -2.18969,0.99323 -2.79525,-0.55484 -0.60552,-1.54827 0.38023,-3.20696 0.38023,-3.20696 z m 2.84019,-0.47809 c -0.072,-0.27952 0.018,-2.00067 0.27008,-2.51312 0.25208,-0.51245 -0.73383,1.495 1.02141,-2.46184 0.27782,-0.6263 1.43552,-2.70976 1.50754,-2.01096 0.072,0.6988 -0.51233,4.19984 -0.62036,4.43277 -0.10804,0.23293 -0.50416,1.30443 -0.54017,2.0964 -0.036,0.79197 0.0319,2.63542 0.10396,3.33422 0.072,0.6988 -0.57946,1.73885 -1.47974,0.34125 -0.90028,-1.3976 -0.26272,-3.21872 -0.26272,-3.21872 z m -1.98207,2.65501 c -0.125,-0.48512 0.0313,-3.47232 0.46875,-4.36172 0.4375,-0.8894 1.46875,-2.49709 2.15625,-3.46735 0.6875,-0.97025 2.03125,-2.74708 2.15625,-1.53426 0.125,1.21282 -0.8125,4.52786 -1,4.93214 -0.1875,0.40427 -0.875,2.26393 -0.9375,3.63846 -0.0625,1.37452 3.0625,10.39787 3.1875,11.61069 0.125,1.21282 -0.68502,2.96943 -2.875,1.09083 -8.875,-7.61314 -3.15625,-11.90879 -3.15625,-11.90879 z m 19.70936,-12.96734 c 0,0 3.9375,0.75963 5.375,4.62679 1.4375,3.86716 2.6875,6.9747 1.0625,11.80866 -1.625,4.83395 -3.25,7.87244 -3.25,7.87244 0,0 0.375,-11.94678 0.25,-13.8113 -0.125,-1.86453 -3.4375,-10.49659 -3.4375,-10.49659 z"
         clip-path="url(#e-1)" />
      <path
         style="fill:none"
         inkscape:connector-curvature="0"
         id="path47"
         d="m 327.55368,480.31704 10.25,-13.75 3.1875,3.0625 2.34375,-14.40625 -13.03125,6.375 3.6875,2.09375 c 0,0 -4.79404,6.41727 -10,13.375" />
      <path
         style="opacity:0.39506172;fill:none"
         inkscape:connector-curvature="0"
         id="path49"
         d="m 295.11526,454.49084 57.375,0 0,57.375 -57.375,0 z" />
      <g
         id="g51"
         transform="matrix(0.99990096,0.01407388,-0.01407388,0.99990096,-245.10157,-201.70028)"
         clip-path="url(#a-8)">
        <path
           style="fill:url(#h-5)"
           inkscape:connector-curvature="0"
           id="path53"
           d="m 597.71136,649.10637 -12.9375,6.3125 3.6875,2.09375 c 0,0 -19.96054,26.62963 -24.53125,32.84375 l -9.125,4 8.03125,1.40625 z" />
        <path
           style="fill:url(#linearGradient4189)"
           inkscape:connector-curvature="0"
           id="path55"
           d="m 597.69396,649.11595 -2.39786,14.19425 -3.05074,-2.94525 c 0,0 -19.90106,26.67412 -24.56967,32.81503 l -1.25739,9.88354 -3.61917,-7.30616 z" />
      </g>
    </g>
  </g>
</svg>
